<svg xmlns="http://www.w3.org/2000/svg" viewBox="0 0 100 100" width="100" height="100">
  <!-- Фон -->
  <circle cx="50" cy="50" r="45" fill="#4ade80" stroke="#22c55e" stroke-width="2"/>
  
  <!-- Чайная чашка -->
  <ellipse cx="50" cy="45" rx="25" ry="20" fill="#fef3c7" stroke="#f59e0b" stroke-width="2"/>
  
  <!-- Ручка чашки -->
  <path d="M75 45 Q85 45 85 55 Q85 65 75 65" fill="none" stroke="#f59e0b" stroke-width="3" stroke-linecap="round"/>
  
  <!-- Пар -->
  <g fill="#e5e7eb" opacity="0.8">
    <ellipse cx="45" cy="25" rx="3" ry="6" transform="rotate(-15 45 25)"/>
    <ellipse cx="50" cy="20" rx="2" ry="5" transform="rotate(10 50 20)"/>
    <ellipse cx="55" cy="25" rx="3" ry="6" transform="rotate(15 55 25)"/>
  </g>
  
  <!-- Чайные листья -->
  <g fill="#16a34a">
    <ellipse cx="40" cy="50" rx="8" ry="12" transform="rotate(-20 40 50)"/>
    <ellipse cx="60" cy="50" rx="8" ry="12" transform="rotate(20 60 50)"/>
    <ellipse cx="50" cy="55" rx="6" ry="10" transform="rotate(0 50 55)"/>
  </g>
  
  <!-- Точки для украшения -->
  <circle cx="35" cy="35" r="2" fill="#fbbf24"/>
  <circle cx="65" cy="35" r="2" fill="#fbbf24"/>
  <circle cx="50" cy="30" r="2" fill="#fbbf24"/>
</svg>
